<svg width="512.000000" height="512.000000" viewBox="0 0 512 512" fill="none" xmlns="http://www.w3.org/2000/svg">
  <g clip-path="url(#clip4_5)">
    <path id="path"
      d="M499.064 75.4369L269.291 492.413C264.547 501.022 252.359 501.073 247.543 492.506L13.2141 75.4771C7.96814 66.1411 15.8346 54.8326 26.2593 56.7235L256.278 98.4488C257.746 98.7149 259.248 98.7124 260.715 98.441L485.924 56.7834C496.314 54.8616 504.218 66.0825 499.064 75.4369Z"
      fill-rule="evenodd" fill="url(#paint_linear_4_6_0)" />
    <path id="path"
      d="M365.849 1.99522L195.81 35.8085C193.015 36.3642 190.946 38.7679 190.777 41.6524L180.318 220.933C180.072 225.156 183.893 228.433 187.954 227.483L235.295 216.395C239.725 215.358 243.727 219.317 242.817 223.838L228.752 293.735C227.805 298.439 232.157 302.461 236.684 301.066L265.924 292.05C270.457 290.654 274.813 294.688 273.854 299.396L251.502 409.188C250.103 416.056 259.104 419.801 262.858 413.913L265.366 409.98L403.923 129.359C406.243 124.66 402.242 119.302 397.157 120.298L348.427 129.843C343.848 130.739 339.952 126.411 341.244 121.864L373.049 9.96986C374.343 5.41541 370.433 1.08374 365.849 1.99522Z"
      fill-rule="evenodd" fill="url(#paint_linear_4_7_0)" />
    <path id="path"
      d="M345.764 286.474C353.79 281.959 363.029 279.382 372.863 279.382C421.398 279.382 460.743 319.212 460.743 368.348C460.743 417.478 421.398 457.311 372.863 457.311C364.154 457.325 355.633 456.051 347.299 453.487C338.966 450.924 331.185 447.184 323.955 442.268C340.885 441.386 355.318 430.942 362.098 416.173C362.86 414.504 363.532 412.781 364.095 411.009C373.852 406.174 381.918 399.305 388.293 390.401C396.088 379.521 400.692 367.058 400.692 351.673C400.692 333.926 394.57 323.72 394.546 323.668C393.621 321.729 392.506 319.909 391.203 318.208C389.899 316.506 388.435 314.961 386.81 313.572C385.185 312.182 383.435 310.98 381.56 309.963C379.685 308.947 377.726 308.139 375.683 307.541C373.64 306.942 371.557 306.565 369.436 306.41C367.314 306.255 365.2 306.326 363.094 306.621C360.987 306.917 358.933 307.432 356.934 308.165C354.934 308.898 353.031 309.834 351.226 310.973C346.959 313.671 343.562 317.222 341.033 321.625C341.006 321.673 340.976 321.719 340.952 321.768C340.307 322.903 339.738 324.075 339.243 325.285L339.153 325.508C338.927 326.081 338.713 326.664 338.514 327.252L338.454 327.448C337.601 330.077 337.111 332.774 336.982 335.537C337.217 330.146 336.143 325.035 333.759 320.203C332.005 316.65 329.669 313.544 326.751 310.888C326.676 310.809 326.576 310.723 326.492 310.647C325.599 309.848 324.569 309.568 323.4 309.808C323.358 309.814 323.31 309.832 323.268 309.845C323.488 309.421 323.702 309 323.931 308.585Q327.994 301.172 333.756 295.478Q339.044 290.252 345.764 286.474ZM336.977 335.637C336.979 335.604 336.98 335.571 336.982 335.537C336.98 335.571 336.979 335.604 336.977 335.637Z"
      fill-rule="evenodd" fill="url(#paint_linear_4_8_0)" />
  </g>
  <defs>
    <linearGradient id="paint_linear_4_6_0" x1="7.492722" y1="41.821381" x2="293.463562" y2="435.960358"
      gradientUnits="userSpaceOnUse">
      <stop stop-color="#41D1FF" />
      <stop offset="1.000000" stop-color="#BD34FE" />
    </linearGradient>
    <linearGradient id="paint_linear_4_7_0" x1="243.076385" y1="11.175459" x2="294.807037" y2="371.312805"
      gradientUnits="userSpaceOnUse">
      <stop stop-color="#FFEA83" />
      <stop offset="0.083333" stop-color="#FFDD35" />
      <stop offset="1.000000" stop-color="#FFA800" />
    </linearGradient>
  </defs>
</svg>