<svg width="410.000000" height="404.000000" viewBox="0 0 410 404" fill="none" xmlns="http://www.w3.org/2000/svg">
  <g clip-path="url(#clip2_4)">
    <path
      d="M399.641 59.5246L215.643 388.545C211.844 395.338 202.084 395.378 198.228 388.618L10.5817 59.5563C6.38087 52.1896 12.6802 43.2665 21.0281 44.7586L205.223 77.6824C206.398 77.8924 207.601 77.8904 208.776 77.6763L389.119 44.8058C397.439 43.2894 403.768 52.1434 399.641 59.5246Z"
      fill-rule="nonzero" fill="url(#paint_linear_2_5_0)" />
    <path
      d="M292.965 1.5744L156.801 28.2552C154.563 28.6937 152.906 30.5903 152.771 32.8664L144.395 174.33C144.198 177.662 147.258 180.248 150.51 179.498L188.42 170.749C191.967 169.931 195.172 173.055 194.443 176.622L183.18 231.775C182.422 235.487 185.907 238.661 189.532 237.56L212.947 230.446C216.577 229.344 220.065 232.527 219.297 236.242L201.398 322.875C200.278 328.294 207.486 331.249 210.492 326.603L212.5 323.5L323.454 102.072C325.312 98.3645 322.108 94.137 318.036 94.9228L279.014 102.454C275.347 103.161 272.227 99.746 273.262 96.1583L298.731 7.86688C299.767 4.27313 296.636 0.855179 292.965 1.5744Z"
      fill-rule="nonzero" fill="url(#paint_linear_2_6_0)" />
    <path
      d="M276.881 226.046C283.309 222.484 290.707 220.45 298.582 220.45C337.448 220.45 368.955 251.878 368.955 290.65C368.955 329.417 337.448 360.847 298.582 360.847C291.608 360.858 284.784 359.853 278.111 357.83C271.438 355.807 265.206 352.856 259.417 348.977C272.975 348.281 284.532 340.04 289.961 328.387C290.571 327.07 291.11 325.71 291.561 324.312Q303.28 318.59 310.938 308.051C317.18 299.466 320.867 289.632 320.867 277.492C320.867 263.489 315.964 255.436 315.945 255.395Q314.834 253.1 313.268 251.086C312.224 249.743 311.052 248.524 309.75 247.428C308.449 246.331 307.048 245.382 305.546 244.58C304.045 243.778 302.476 243.141 300.84 242.669C299.204 242.196 297.536 241.899 295.837 241.777C294.139 241.655 292.446 241.71 290.759 241.943Q288.228 242.293 285.826 243.161C284.224 243.74 282.701 244.479 281.256 245.377Q276.13 248.571 273.093 253.782C273.071 253.821 273.047 253.857 273.028 253.895C272.512 254.791 272.056 255.716 271.66 256.67L271.587 256.846C271.406 257.298 271.235 257.758 271.076 258.223L271.028 258.377C270.345 260.452 269.952 262.58 269.849 264.76C270.037 260.506 269.177 256.473 267.268 252.66Q265.161 248.454 261.656 245.31C261.596 245.247 261.516 245.18 261.449 245.12C260.734 244.489 259.908 244.268 258.973 244.458C258.939 244.463 258.901 244.477 258.867 244.487C259.043 244.152 259.214 243.82 259.398 243.493Q265.638 232.275 276.881 226.046ZM269.845 264.839Q269.847 264.8 269.849 264.76C269.848 264.786 269.847 264.813 269.845 264.839Z"
      fill-rule="evenodd" fill="url(#paint_linear_2_8_0)" />
  </g>
  <defs>
    <clipPath id="clip2_4">
      <rect id="logo" width="410.000000" height="404.000000" fill="white" />
    </clipPath>
    <linearGradient id="paint_linear_2_5_0" x1="6.000198" y1="32.999832" x2="235.000122" y2="344.000000"
      gradientUnits="userSpaceOnUse">
      <stop stop-color="#41D1FF" />
      <stop offset="1.000000" stop-color="#BD34FE" />
    </linearGradient>
    <linearGradient id="paint_linear_2_6_0" x1="194.651123" y1="8.818170" x2="236.075974" y2="292.989014"
      gradientUnits="userSpaceOnUse">
      <stop stop-color="#FFEA83" />
      <stop offset="0.083333" stop-color="#FFDD35" />
      <stop offset="1.000000" stop-color="#FFA800" />
    </linearGradient>
  </defs>
</svg>