<svg width="192.000000" height="192.000000" viewBox="0 0 192 192" fill="none" xmlns="http://www.w3.org/2000/svg">
  <g clip-path="url(#clip4_5)">
    <path id="path"
      d="M187.149 28.2888L100.984 184.655C99.205 187.883 94.6344 187.902 92.8287 184.69L4.95526 28.3039C2.98804 24.8029 5.93799 20.5622 9.84723 21.2713L96.1044 36.9183C96.6546 37.0181 97.218 37.0171 97.7682 36.9154L182.222 21.2938C186.118 20.5731 189.082 24.7809 187.149 28.2888Z"
      fill-rule="evenodd" fill="url(#paint_linear_4_6_0)" />
    <path id="path"
      d="M137.193 0.748199L73.4287 13.4282C72.3807 13.6366 71.6047 14.5379 71.5415 15.6197L67.6191 82.8499C67.5268 84.4334 68.9598 85.6624 70.4827 85.306L88.2357 81.148C89.8967 80.7593 91.3976 82.2439 91.0562 83.9392L85.7818 110.15C85.4268 111.915 87.0589 113.423 88.7564 112.9L99.7215 109.519C101.421 108.995 103.055 110.508 102.695 112.273L94.3132 153.446C93.7887 156.021 97.1642 157.425 98.5718 155.217L99.5122 153.743L151.471 48.5094C152.341 46.7475 150.841 44.7384 148.934 45.1118L130.66 48.691C128.943 49.027 127.482 47.404 127.967 45.699L139.894 3.73869C140.379 2.03077 138.912 0.406395 137.193 0.748199Z"
      fill-rule="evenodd" fill="url(#paint_linear_4_7_0)" />
    <path id="path"
      d="M129.661 107.428C132.671 105.735 136.136 104.768 139.824 104.768C158.024 104.768 172.779 119.704 172.779 138.131C172.779 156.554 158.024 171.492 139.824 171.492C136.558 171.497 133.362 171.019 130.237 170.058C127.112 169.097 124.194 167.694 121.483 165.85C127.832 165.52 133.244 161.603 135.787 156.065C136.072 155.439 136.324 154.793 136.536 154.128C140.195 152.315 143.219 149.74 145.61 146.401C148.533 142.32 150.26 137.647 150.26 131.877C150.26 125.222 147.964 121.395 147.955 121.376C147.608 120.649 147.19 119.966 146.701 119.328C146.212 118.69 145.663 118.11 145.054 117.589C144.444 117.068 143.788 116.617 143.085 116.236C142.382 115.855 141.647 115.552 140.881 115.328C140.115 115.103 139.334 114.962 138.538 114.904C137.743 114.846 136.95 114.872 136.16 114.983C135.37 115.094 134.6 115.287 133.85 115.562C133.1 115.837 132.387 116.188 131.71 116.615C130.11 117.627 128.836 118.958 127.887 120.609C127.877 120.628 127.866 120.645 127.857 120.663C127.615 121.089 127.402 121.528 127.216 121.982L127.182 122.065C127.098 122.28 127.017 122.499 126.943 122.72L126.92 122.793C126.601 123.779 126.417 124.79 126.368 125.827C126.456 123.805 126.054 121.888 125.16 120.076C124.502 118.744 123.626 117.579 122.532 116.583C122.503 116.553 122.466 116.521 122.434 116.493C122.1 116.193 121.713 116.088 121.275 116.178C121.259 116.18 121.241 116.187 121.225 116.192C121.308 116.033 121.388 115.875 121.474 115.719Q122.998 112.939 125.158 110.804L125.158 110.804Q127.142 108.844 129.661 107.428Z"
      fill-rule="evenodd" fill="url(#paint_linear_4_8_0)" />
  </g>
  <defs>
    <linearGradient id="paint_linear_4_6_0" x1="2.809784" y1="15.683010" x2="110.048836" y2="163.485123"
      gradientUnits="userSpaceOnUse">
      <stop stop-color="#41D1FF" />
      <stop offset="1.000000" stop-color="#BD34FE" />
    </linearGradient>
    <linearGradient id="paint_linear_4_7_0" x1="91.153580" y1="4.190798" x2="110.552635" y2="139.242294"
      gradientUnits="userSpaceOnUse">
      <stop stop-color="#FFEA83" />
      <stop offset="0.083333" stop-color="#FFDD35" />
      <stop offset="1.000000" stop-color="#FFA800" />
    </linearGradient>
  </defs>
</svg>